<?xml version="1.0" encoding="iso-8859-1"?>
<!-- Uploaded to: SVG Repo, www.svgrepo.com, Generator: SVG Repo Mixer Tools -->
<svg height="800px" width="800px" version="1.1" id="Layer_1" xmlns="http://www.w3.org/2000/svg" xmlns:xlink="http://www.w3.org/1999/xlink" 
	 viewBox="0 0 297 297" xml:space="preserve">
<g>
	<g>
		<g>
			<g>
				<circle style="fill:#5B5869;" cx="148.5" cy="148.5" r="148.5"/>
			</g>
		</g>
	</g>
	<path style="fill:#3A384C;" d="M294.524,121.397l-51.258-51.258L105.467,234.991l60.918,60.933
		C239.964,287.091,297,224.46,297,148.5C297,139.243,296.145,130.186,294.524,121.397z"/>
	<g>
		<path style="fill:#D95459;" d="M178.75,147v23.958c0,4.993-4.048,9.042-9.042,9.042h-7.458v-33H178.75z"/>
	</g>
	<g>
		<path style="fill:#D0D5D9;" d="M165,141.25v83.606c0,7.397-5.1,13.394-11.392,13.394h-40.713c-7.189,0-12.58-7.733-11.17-16.02
			l13.775-80.98H165z"/>
	</g>
	<g>
		<path style="fill:#FFFFFF;" d="M190.015,148.5h-74.25c-22.782,0-41.25-18.468-41.25-41.25l0,0c0-22.782,18.468-41.25,41.25-41.25
			h117.473c11.937,0,18.573,13.808,11.116,23.129l-43.223,54.028C198.43,146.534,194.339,148.5,190.015,148.5z"/>
	</g>
	<g>
		<path style="fill:#BDC3C7;" d="M233.237,66h-28.115l-60.662,82.5h45.554c4.325,0,8.415-1.966,11.116-5.343l43.223-54.028
			C251.811,79.808,245.174,66,233.237,66z"/>
	</g>
</g>
</svg>